# xmcd CD database file generated by OrangeCD 6.1
#
# Track frame offsets:
#	215
#	20907
#	40870
#	67367
#	82407
#	101850
#	112707
#	132285
#	161592
#	173202
#	183612
#	198045
#	216057
#	230347
#	244680
#	262725
#	286257
#
# Disc length: 4059 seconds
#
# Revision: 2
# Processed by: cddbd v1.5.2PL0 Copyright (c) Steve Scherf et al.
# Submitted via: OrangeCD 6.1
#
DISCID=f40fd911
DTITLE=Duke Robillard and the Pleasure Kings - Rockin' Blues
DYEAR=1988
DGENRE=Blues
TTITLE0=If This Is Love
TTITLE1=Too Hot To Handle
TTITLE2=Rockin' Blues
TTITLE3=Tore Up
TTITLE4=Let Me Love You
TTITLE5=Baby Please Come Home
TTITLE6=She's Sweet
TTITLE7=Duke's Mood
TTITLE8=One More Time
TTITLE9=Someone
TTITLE10=She Made My Mind
TTITLE11=Anything It Takes
TTITLE12=My Plea
TTITLE13=It's My Own Business
TTITLE14=Give Me All The Love You Got
TTITLE15=Just Kiss Me
TTITLE16=Give Me Your Attention
EXTD=Tracks 2, 3, 7, 8, 10, 11, 12, 15 and 17 are from Too Hot to Handle (Round
EXTD=er 3082) recorded Sept - Dec 1984, released in 1985.\nTracks 1, 4, 5, 6, 9
EXTD=, 13, 14, 16 are from Duke Robillard and the Pleasure Kings (Rounder 3079)
EXTD=recorded Feb and March 1983, released in 1983.\n
EXTT0=
EXTT1=
EXTT2=
EXTT3=
EXTT4=
EXTT5=
EXTT6=
EXTT7=
EXTT8=
EXTT9=
EXTT10=
EXTT11=
EXTT12=
EXTT13=
EXTT14=
EXTT15=
EXTT16=
PLAYORDER=
